<mxfile host="app.diagrams.net" modified="2024-03-26T17:06:38.746Z" agent="Mozilla/5.0 (Windows NT 10.0; Win64; x64) AppleWebKit/537.36 (KHTML, like Gecko) Chrome/123.0.0.0 Safari/537.36" etag="tVDTs-Oop502Jx8rp_Gc" version="24.0.7" type="github">
  <diagram name="Page-1" id="Qt90fjG8sOrPd1pVyCrm">
    <mxGraphModel dx="1034" dy="1559" grid="1" gridSize="10" guides="1" tooltips="1" connect="1" arrows="1" fold="1" page="1" pageScale="1" pageWidth="850" pageHeight="1100" math="0" shadow="0">
      <root>
        <mxCell id="0" />
        <mxCell id="1" parent="0" />
        <mxCell id="alDGmMfHvAbmxITZs6N1-24" value="" style="edgeStyle=orthogonalEdgeStyle;rounded=0;orthogonalLoop=1;jettySize=auto;html=1;entryX=0.563;entryY=0;entryDx=0;entryDy=0;entryPerimeter=0;" edge="1" parent="1" source="alDGmMfHvAbmxITZs6N1-1" target="alDGmMfHvAbmxITZs6N1-3">
          <mxGeometry relative="1" as="geometry">
            <mxPoint x="390" y="-900" as="targetPoint" />
          </mxGeometry>
        </mxCell>
        <mxCell id="alDGmMfHvAbmxITZs6N1-1" value="Start" style="ellipse;whiteSpace=wrap;html=1;" vertex="1" parent="1">
          <mxGeometry x="330" y="-1080" width="120" height="80" as="geometry" />
        </mxCell>
        <mxCell id="alDGmMfHvAbmxITZs6N1-2" value="" style="shape=flexArrow;endArrow=classic;html=1;rounded=0;" edge="1" parent="1">
          <mxGeometry width="50" height="50" relative="1" as="geometry">
            <mxPoint x="510" y="-1020" as="sourcePoint" />
            <mxPoint x="510" y="-930" as="targetPoint" />
            <Array as="points">
              <mxPoint x="510" y="-1000" />
            </Array>
          </mxGeometry>
        </mxCell>
        <mxCell id="alDGmMfHvAbmxITZs6N1-15" value="" style="edgeStyle=orthogonalEdgeStyle;rounded=0;orthogonalLoop=1;jettySize=auto;html=1;" edge="1" parent="1" source="alDGmMfHvAbmxITZs6N1-3">
          <mxGeometry relative="1" as="geometry">
            <mxPoint x="380" y="-720" as="targetPoint" />
          </mxGeometry>
        </mxCell>
        <mxCell id="alDGmMfHvAbmxITZs6N1-3" value="collect input for type of equation to be solved" style="shape=parallelogram;perimeter=parallelogramPerimeter;whiteSpace=wrap;html=1;fixedSize=1;size=10;" vertex="1" parent="1">
          <mxGeometry x="300" y="-890" width="160" height="60" as="geometry" />
        </mxCell>
        <mxCell id="alDGmMfHvAbmxITZs6N1-7" value="if input is for cubic equation" style="rhombus;whiteSpace=wrap;html=1;" vertex="1" parent="1">
          <mxGeometry x="310" y="-710" width="140" height="110" as="geometry" />
        </mxCell>
        <mxCell id="alDGmMfHvAbmxITZs6N1-11" value="" style="edgeStyle=orthogonalEdgeStyle;rounded=0;orthogonalLoop=1;jettySize=auto;html=1;" edge="1" parent="1">
          <mxGeometry relative="1" as="geometry">
            <mxPoint x="450" y="-830.5" as="sourcePoint" />
            <mxPoint x="610" y="-730" as="targetPoint" />
          </mxGeometry>
        </mxCell>
        <mxCell id="alDGmMfHvAbmxITZs6N1-13" value="" style="edgeStyle=orthogonalEdgeStyle;rounded=0;orthogonalLoop=1;jettySize=auto;html=1;" edge="1" parent="1">
          <mxGeometry relative="1" as="geometry">
            <mxPoint x="300" y="-830.5" as="sourcePoint" />
            <mxPoint x="160" y="-730" as="targetPoint" />
          </mxGeometry>
        </mxCell>
        <mxCell id="alDGmMfHvAbmxITZs6N1-22" value="" style="edgeStyle=orthogonalEdgeStyle;rounded=0;orthogonalLoop=1;jettySize=auto;html=1;" edge="1" parent="1" source="alDGmMfHvAbmxITZs6N1-8" target="alDGmMfHvAbmxITZs6N1-17">
          <mxGeometry relative="1" as="geometry" />
        </mxCell>
        <mxCell id="alDGmMfHvAbmxITZs6N1-8" value="if input is for cubic equation" style="rhombus;whiteSpace=wrap;html=1;" vertex="1" parent="1">
          <mxGeometry x="310" y="-710" width="140" height="110" as="geometry" />
        </mxCell>
        <mxCell id="alDGmMfHvAbmxITZs6N1-23" value="" style="edgeStyle=orthogonalEdgeStyle;rounded=0;orthogonalLoop=1;jettySize=auto;html=1;" edge="1" parent="1" source="alDGmMfHvAbmxITZs6N1-10" target="alDGmMfHvAbmxITZs6N1-19">
          <mxGeometry relative="1" as="geometry" />
        </mxCell>
        <mxCell id="alDGmMfHvAbmxITZs6N1-10" value="if input is for quadratic equation" style="rhombus;whiteSpace=wrap;html=1;" vertex="1" parent="1">
          <mxGeometry x="530" y="-710" width="160" height="110" as="geometry" />
        </mxCell>
        <mxCell id="alDGmMfHvAbmxITZs6N1-21" value="" style="edgeStyle=orthogonalEdgeStyle;rounded=0;orthogonalLoop=1;jettySize=auto;html=1;" edge="1" parent="1" source="alDGmMfHvAbmxITZs6N1-12" target="alDGmMfHvAbmxITZs6N1-16">
          <mxGeometry relative="1" as="geometry" />
        </mxCell>
        <mxCell id="alDGmMfHvAbmxITZs6N1-12" value="if input is for quartic equation" style="rhombus;whiteSpace=wrap;html=1;" vertex="1" parent="1">
          <mxGeometry x="90" y="-710" width="140" height="110" as="geometry" />
        </mxCell>
        <mxCell id="alDGmMfHvAbmxITZs6N1-27" value="" style="edgeStyle=orthogonalEdgeStyle;rounded=0;orthogonalLoop=1;jettySize=auto;html=1;" edge="1" parent="1" source="alDGmMfHvAbmxITZs6N1-16">
          <mxGeometry relative="1" as="geometry">
            <mxPoint x="260" y="-370" as="targetPoint" />
          </mxGeometry>
        </mxCell>
        <mxCell id="alDGmMfHvAbmxITZs6N1-16" value="collect input for every coefficient&amp;nbsp; of variable x and constant in equation&lt;span style=&quot;background-color: initial;&quot;&gt;&amp;nbsp;&lt;/span&gt;" style="shape=process;whiteSpace=wrap;html=1;backgroundOutline=1;" vertex="1" parent="1">
          <mxGeometry x="100" y="-550" width="120" height="90" as="geometry" />
        </mxCell>
        <mxCell id="alDGmMfHvAbmxITZs6N1-29" value="" style="edgeStyle=orthogonalEdgeStyle;rounded=0;orthogonalLoop=1;jettySize=auto;html=1;" edge="1" parent="1" source="alDGmMfHvAbmxITZs6N1-17">
          <mxGeometry relative="1" as="geometry">
            <mxPoint x="280" y="-370" as="targetPoint" />
          </mxGeometry>
        </mxCell>
        <mxCell id="alDGmMfHvAbmxITZs6N1-17" value="collect input for every coefficient&amp;nbsp; of variable x and constant in equation&lt;span style=&quot;background-color: initial;&quot;&gt;&amp;nbsp;&lt;/span&gt;" style="shape=process;whiteSpace=wrap;html=1;backgroundOutline=1;" vertex="1" parent="1">
          <mxGeometry x="320" y="-550" width="120" height="90" as="geometry" />
        </mxCell>
        <mxCell id="alDGmMfHvAbmxITZs6N1-36" value="" style="edgeStyle=orthogonalEdgeStyle;rounded=0;orthogonalLoop=1;jettySize=auto;html=1;" edge="1" parent="1" source="alDGmMfHvAbmxITZs6N1-19" target="alDGmMfHvAbmxITZs6N1-35">
          <mxGeometry relative="1" as="geometry" />
        </mxCell>
        <mxCell id="alDGmMfHvAbmxITZs6N1-19" value="collect input for every coefficient&amp;nbsp; of variable x and constant in equation&lt;span style=&quot;background-color: initial;&quot;&gt;&amp;nbsp;&lt;/span&gt;" style="shape=process;whiteSpace=wrap;html=1;backgroundOutline=1;" vertex="1" parent="1">
          <mxGeometry x="550" y="-550" width="120" height="90" as="geometry" />
        </mxCell>
        <mxCell id="alDGmMfHvAbmxITZs6N1-31" value="" style="edgeStyle=orthogonalEdgeStyle;rounded=0;orthogonalLoop=1;jettySize=auto;html=1;" edge="1" parent="1" source="alDGmMfHvAbmxITZs6N1-25">
          <mxGeometry relative="1" as="geometry">
            <mxPoint x="270" y="-260" as="targetPoint" />
          </mxGeometry>
        </mxCell>
        <mxCell id="alDGmMfHvAbmxITZs6N1-25" value="loop it to run through a range of 1-101 and get results" style="rounded=0;whiteSpace=wrap;html=1;" vertex="1" parent="1">
          <mxGeometry x="210" y="-360" width="120" height="60" as="geometry" />
        </mxCell>
        <mxCell id="alDGmMfHvAbmxITZs6N1-34" value="" style="edgeStyle=orthogonalEdgeStyle;rounded=0;orthogonalLoop=1;jettySize=auto;html=1;" edge="1" parent="1" source="alDGmMfHvAbmxITZs6N1-30">
          <mxGeometry relative="1" as="geometry">
            <mxPoint x="270" y="-140" as="targetPoint" />
          </mxGeometry>
        </mxCell>
        <mxCell id="alDGmMfHvAbmxITZs6N1-30" value="while in loop, if result is = 0 save the value of i in loop in a list" style="shape=process;whiteSpace=wrap;html=1;backgroundOutline=1;rounded=0;" vertex="1" parent="1">
          <mxGeometry x="210" y="-260" width="120" height="60" as="geometry" />
        </mxCell>
        <mxCell id="alDGmMfHvAbmxITZs6N1-33" value="print list as roots of equation" style="shape=parallelogram;perimeter=parallelogramPerimeter;whiteSpace=wrap;html=1;fixedSize=1;rounded=0;" vertex="1" parent="1">
          <mxGeometry x="200" y="-140" width="140" height="50" as="geometry" />
        </mxCell>
        <mxCell id="alDGmMfHvAbmxITZs6N1-38" value="" style="edgeStyle=orthogonalEdgeStyle;rounded=0;orthogonalLoop=1;jettySize=auto;html=1;" edge="1" parent="1" source="alDGmMfHvAbmxITZs6N1-35" target="alDGmMfHvAbmxITZs6N1-33">
          <mxGeometry relative="1" as="geometry">
            <mxPoint x="590" y="-130" as="targetPoint" />
            <Array as="points">
              <mxPoint x="810" y="-115" />
            </Array>
          </mxGeometry>
        </mxCell>
        <mxCell id="alDGmMfHvAbmxITZs6N1-35" value="using almighty formula find roots of equation" style="whiteSpace=wrap;html=1;" vertex="1" parent="1">
          <mxGeometry x="750" y="-535" width="120" height="60" as="geometry" />
        </mxCell>
      </root>
    </mxGraphModel>
  </diagram>
</mxfile>
